<svg width="1440" height="1160" viewBox="0 0 1440 1160" fill="none" xmlns="http://www.w3.org/2000/svg">
<path d="M0 80H1440V1152C1440 1156.42 1436.42 1160 1432 1160H8.00002C3.58174 1160 0 1156.42 0 1152V80Z" fill="none" />
<g clip-path="url(#clip0_10_880)">
<g clip-path="url(#clip1_10_880)">
<g filter="url(#filter0_i_10_880)">
<rect y="42" width="1440" height="38" fill="#35363A"/>
</g>
<g clip-path="url(#clip2_10_880)">
<path fill-rule="evenodd" clip-rule="evenodd" d="M1418.17 58C1418.99 58 1419.67 57.325 1419.67 56.5C1419.67 55.675 1418.99 55 1418.17 55C1417.34 55 1416.67 55.675 1416.67 56.5C1416.67 57.325 1417.34 58 1418.17 58ZM1418.17 59.5C1417.34 59.5 1416.67 60.175 1416.67 61C1416.67 61.825 1417.34 62.5 1418.17 62.5C1418.99 62.5 1419.67 61.825 1419.67 61C1419.67 60.175 1418.99 59.5 1418.17 59.5ZM1418.17 64C1417.34 64 1416.67 64.675 1416.67 65.5C1416.67 66.325 1417.34 67 1418.17 67C1418.99 67 1419.67 66.325 1419.67 65.5C1419.67 64.675 1418.99 64 1418.17 64Z" fill="#5F6368"/>
<circle cx="1386" cy="61" r="11" fill="black" fill-opacity="0.2"/>
</g>
<g clip-path="url(#clip3_10_880)">
<rect x="134" y="47" width="1225" height="28" rx="14" fill="#202124"/>
<path fill-rule="evenodd" clip-rule="evenodd" d="M1346.36 58.8401L1342.97 58.5456L1341.64 55.4259C1341.41 54.858 1340.59 54.858 1340.35 55.4259L1339.03 58.5526L1335.64 58.8401C1335.03 58.8892 1334.77 59.6603 1335.24 60.0669L1337.82 62.2963L1337.04 65.6053C1336.9 66.2083 1337.56 66.685 1338.09 66.3625L1341 64.6098L1343.91 66.3695C1344.44 66.692 1345.09 66.2153 1344.95 65.6124L1344.18 62.2963L1346.75 60.0669C1347.22 59.6603 1346.98 58.8892 1346.36 58.8401V58.8401ZM1341 63.2988L1338.36 64.8903L1339.06 61.8897L1336.74 59.8706L1339.81 59.6042L1341 56.7789L1342.2 59.6112L1345.27 59.8777L1342.94 61.8967L1343.64 64.8973L1341 63.2988Z" fill="#5F6368"/>
<path d="M169.837 64.6875L171.737 58.6035H172.571L172.407 59.8135L170.473 66H169.659L169.837 64.6875ZM168.559 58.6035L170.179 64.7559L170.295 66H169.44L167.294 58.6035H168.559ZM174.39 64.708L175.935 58.6035H177.192L175.046 66H174.198L174.39 64.708ZM172.756 58.6035L174.615 64.585L174.827 66H174.021L172.031 59.7998L171.867 58.6035H172.756ZM181.811 66.1367C181.296 66.1367 180.828 66.0501 180.409 65.877C179.994 65.6992 179.637 65.4508 179.336 65.1318C179.04 64.8128 178.812 64.4346 178.652 63.9971C178.493 63.5596 178.413 63.0811 178.413 62.5615V62.2744C178.413 61.6729 178.502 61.1374 178.68 60.668C178.857 60.194 179.099 59.793 179.404 59.4648C179.71 59.1367 180.056 58.8883 180.443 58.7197C180.831 58.5511 181.232 58.4668 181.646 58.4668C182.175 58.4668 182.631 58.5579 183.014 58.7402C183.401 58.9225 183.718 59.1777 183.964 59.5059C184.21 59.8294 184.392 60.2122 184.511 60.6543C184.629 61.0918 184.688 61.5703 184.688 62.0898V62.6572H179.165V61.625H183.424V61.5293C183.406 61.2012 183.337 60.8822 183.219 60.5723C183.105 60.2624 182.923 60.0072 182.672 59.8066C182.421 59.6061 182.079 59.5059 181.646 59.5059C181.359 59.5059 181.095 59.5674 180.854 59.6904C180.612 59.8089 180.405 59.9867 180.231 60.2236C180.058 60.4606 179.924 60.75 179.828 61.0918C179.732 61.4336 179.685 61.8278 179.685 62.2744V62.5615C179.685 62.9124 179.732 63.2428 179.828 63.5527C179.928 63.8581 180.072 64.127 180.259 64.3594C180.45 64.5918 180.68 64.7741 180.949 64.9062C181.223 65.0384 181.533 65.1045 181.879 65.1045C182.326 65.1045 182.704 65.0133 183.014 64.8311C183.324 64.6488 183.595 64.4049 183.827 64.0996L184.593 64.708C184.433 64.9495 184.23 65.1797 183.984 65.3984C183.738 65.6172 183.435 65.7949 183.075 65.9316C182.72 66.0684 182.298 66.1367 181.811 66.1367ZM189.484 66.1367C188.969 66.1367 188.502 66.0501 188.083 65.877C187.668 65.6992 187.311 65.4508 187.01 65.1318C186.714 64.8128 186.486 64.4346 186.326 63.9971C186.167 63.5596 186.087 63.0811 186.087 62.5615V62.2744C186.087 61.6729 186.176 61.1374 186.354 60.668C186.531 60.194 186.773 59.793 187.078 59.4648C187.383 59.1367 187.73 58.8883 188.117 58.7197C188.505 58.5511 188.906 58.4668 189.32 58.4668C189.849 58.4668 190.305 58.5579 190.688 58.7402C191.075 58.9225 191.392 59.1777 191.638 59.5059C191.884 59.8294 192.066 60.2122 192.185 60.6543C192.303 61.0918 192.362 61.5703 192.362 62.0898V62.6572H186.839V61.625H191.098V61.5293C191.079 61.2012 191.011 60.8822 190.893 60.5723C190.779 60.2624 190.596 60.0072 190.346 59.8066C190.095 59.6061 189.753 59.5059 189.32 59.5059C189.033 59.5059 188.769 59.5674 188.527 59.6904C188.286 59.8089 188.078 59.9867 187.905 60.2236C187.732 60.4606 187.598 60.75 187.502 61.0918C187.406 61.4336 187.358 61.8278 187.358 62.2744V62.5615C187.358 62.9124 187.406 63.2428 187.502 63.5527C187.602 63.8581 187.746 64.127 187.933 64.3594C188.124 64.5918 188.354 64.7741 188.623 64.9062C188.896 65.0384 189.206 65.1045 189.553 65.1045C189.999 65.1045 190.378 65.0133 190.688 64.8311C190.997 64.6488 191.269 64.4049 191.501 64.0996L192.267 64.708C192.107 64.9495 191.904 65.1797 191.658 65.3984C191.412 65.6172 191.109 65.7949 190.749 65.9316C190.394 66.0684 189.972 66.1367 189.484 66.1367ZM195.36 55.5V66H194.089V55.5H195.36ZM199.879 58.6035L196.652 62.0557L194.848 63.9287L194.745 62.582L196.037 61.0371L198.334 58.6035H199.879ZM198.724 66L196.085 62.4727L196.741 61.3447L200.214 66H198.724ZM202.809 55.5V66H201.537V55.5H202.809ZM207.167 65.2344L209.225 58.6035H210.578L207.611 67.1416C207.543 67.3239 207.452 67.5199 207.338 67.7295C207.229 67.9437 207.087 68.1465 206.914 68.3379C206.741 68.5293 206.531 68.6842 206.285 68.8027C206.044 68.9258 205.754 68.9873 205.417 68.9873C205.317 68.9873 205.189 68.9736 205.034 68.9463C204.879 68.9189 204.77 68.8962 204.706 68.8779L204.699 67.8525C204.736 67.8571 204.793 67.8617 204.87 67.8662C204.952 67.8753 205.009 67.8799 205.041 67.8799C205.328 67.8799 205.572 67.8411 205.772 67.7637C205.973 67.6908 206.142 67.5654 206.278 67.3877C206.42 67.2145 206.54 66.9753 206.641 66.6699L207.167 65.2344ZM205.656 58.6035L207.577 64.3457L207.905 65.6787L206.996 66.1436L204.275 58.6035H205.656ZM211.266 65.3301C211.266 65.1159 211.332 64.9359 211.464 64.79C211.601 64.6396 211.797 64.5645 212.052 64.5645C212.307 64.5645 212.501 64.6396 212.633 64.79C212.77 64.9359 212.838 65.1159 212.838 65.3301C212.838 65.5397 212.77 65.7174 212.633 65.8633C212.501 66.0091 212.307 66.082 212.052 66.082C211.797 66.082 211.601 66.0091 211.464 65.8633C211.332 65.7174 211.266 65.5397 211.266 65.3301ZM216.451 60.1826V66H215.187V58.6035H216.383L216.451 60.1826ZM216.15 62.0215L215.624 62.001C215.629 61.4951 215.704 61.028 215.85 60.5996C215.995 60.1667 216.201 59.7907 216.465 59.4717C216.729 59.1527 217.044 58.9066 217.408 58.7334C217.777 58.5557 218.185 58.4668 218.632 58.4668C218.996 58.4668 219.325 58.5169 219.616 58.6172C219.908 58.7129 220.156 58.8678 220.361 59.082C220.571 59.2962 220.73 59.5742 220.84 59.916C220.949 60.2533 221.004 60.6657 221.004 61.1533V66H219.732V61.1396C219.732 60.7523 219.675 60.4424 219.562 60.21C219.448 59.973 219.281 59.8021 219.062 59.6973C218.844 59.5879 218.575 59.5332 218.256 59.5332C217.941 59.5332 217.654 59.5993 217.395 59.7314C217.139 59.8636 216.918 60.0459 216.731 60.2783C216.549 60.5107 216.406 60.7773 216.301 61.0781C216.201 61.3743 216.15 61.6888 216.15 62.0215ZM226.244 66.1367C225.729 66.1367 225.262 66.0501 224.843 65.877C224.428 65.6992 224.07 65.4508 223.77 65.1318C223.473 64.8128 223.245 64.4346 223.086 63.9971C222.926 63.5596 222.847 63.0811 222.847 62.5615V62.2744C222.847 61.6729 222.936 61.1374 223.113 60.668C223.291 60.194 223.533 59.793 223.838 59.4648C224.143 59.1367 224.49 58.8883 224.877 58.7197C225.264 58.5511 225.665 58.4668 226.08 58.4668C226.609 58.4668 227.064 58.5579 227.447 58.7402C227.835 58.9225 228.151 59.1777 228.397 59.5059C228.644 59.8294 228.826 60.2122 228.944 60.6543C229.063 61.0918 229.122 61.5703 229.122 62.0898V62.6572H223.599V61.625H227.857V61.5293C227.839 61.2012 227.771 60.8822 227.652 60.5723C227.538 60.2624 227.356 60.0072 227.105 59.8066C226.855 59.6061 226.513 59.5059 226.08 59.5059C225.793 59.5059 225.529 59.5674 225.287 59.6904C225.046 59.8089 224.838 59.9867 224.665 60.2236C224.492 60.4606 224.357 60.75 224.262 61.0918C224.166 61.4336 224.118 61.8278 224.118 62.2744V62.5615C224.118 62.9124 224.166 63.2428 224.262 63.5527C224.362 63.8581 224.506 64.127 224.692 64.3594C224.884 64.5918 225.114 64.7741 225.383 64.9062C225.656 65.0384 225.966 65.1045 226.312 65.1045C226.759 65.1045 227.137 65.0133 227.447 64.8311C227.757 64.6488 228.028 64.4049 228.261 64.0996L229.026 64.708C228.867 64.9495 228.664 65.1797 228.418 65.3984C228.172 65.6172 227.869 65.7949 227.509 65.9316C227.153 66.0684 226.732 66.1367 226.244 66.1367ZM232.722 64.6875L234.622 58.6035H235.456L235.292 59.8135L233.357 66H232.544L232.722 64.6875ZM231.443 58.6035L233.063 64.7559L233.18 66H232.325L230.179 58.6035H231.443ZM237.274 64.708L238.819 58.6035H240.077L237.931 66H237.083L237.274 64.708ZM235.641 58.6035L237.5 64.585L237.712 66H236.905L234.916 59.7998L234.752 58.6035H235.641ZM242.884 60.0732V66H241.612V58.6035H242.815L242.884 60.0732ZM242.624 62.0215L242.036 62.001C242.041 61.4951 242.107 61.028 242.234 60.5996C242.362 60.1667 242.551 59.7907 242.802 59.4717C243.052 59.1527 243.365 58.9066 243.738 58.7334C244.112 58.5557 244.545 58.4668 245.037 58.4668C245.383 58.4668 245.702 58.5169 245.994 58.6172C246.286 58.7129 246.539 58.8656 246.753 59.0752C246.967 59.2848 247.133 59.5537 247.252 59.8818C247.37 60.21 247.43 60.6064 247.43 61.0713V66H246.165V61.1328C246.165 60.7454 246.099 60.4355 245.967 60.2031C245.839 59.9707 245.657 59.8021 245.42 59.6973C245.183 59.5879 244.905 59.5332 244.586 59.5332C244.212 59.5332 243.9 59.5993 243.649 59.7314C243.399 59.8636 243.198 60.0459 243.048 60.2783C242.897 60.5107 242.788 60.7773 242.72 61.0781C242.656 61.3743 242.624 61.6888 242.624 62.0215ZM247.416 61.3242L246.568 61.584C246.573 61.1784 246.639 60.7887 246.767 60.415C246.899 60.0413 247.088 59.7087 247.334 59.417C247.585 59.1253 247.892 58.8952 248.257 58.7266C248.621 58.5534 249.038 58.4668 249.508 58.4668C249.904 58.4668 250.255 58.5192 250.561 58.624C250.87 58.7288 251.13 58.8906 251.34 59.1094C251.554 59.3236 251.716 59.5993 251.825 59.9365C251.935 60.2738 251.989 60.6748 251.989 61.1396V66H250.718V61.126C250.718 60.7113 250.652 60.39 250.52 60.1621C250.392 59.9297 250.21 59.7679 249.973 59.6768C249.74 59.5811 249.462 59.5332 249.139 59.5332C248.861 59.5332 248.615 59.5811 248.4 59.6768C248.186 59.7725 248.006 59.9046 247.86 60.0732C247.715 60.2373 247.603 60.4264 247.525 60.6406C247.452 60.8548 247.416 61.0827 247.416 61.3242ZM255.527 58.6035V66H254.256V58.6035H255.527ZM254.16 56.6416C254.16 56.4365 254.222 56.2633 254.345 56.1221C254.472 55.9808 254.659 55.9102 254.905 55.9102C255.147 55.9102 255.331 55.9808 255.459 56.1221C255.591 56.2633 255.657 56.4365 255.657 56.6416C255.657 56.8376 255.591 57.0062 255.459 57.1475C255.331 57.2842 255.147 57.3525 254.905 57.3525C254.659 57.3525 254.472 57.2842 254.345 57.1475C254.222 57.0062 254.16 56.8376 254.16 56.6416ZM259.072 60.1826V66H257.808V58.6035H259.004L259.072 60.1826ZM258.771 62.0215L258.245 62.001C258.25 61.4951 258.325 61.028 258.471 60.5996C258.617 60.1667 258.822 59.7907 259.086 59.4717C259.35 59.1527 259.665 58.9066 260.029 58.7334C260.398 58.5557 260.806 58.4668 261.253 58.4668C261.618 58.4668 261.946 58.5169 262.237 58.6172C262.529 58.7129 262.777 58.8678 262.982 59.082C263.192 59.2962 263.352 59.5742 263.461 59.916C263.57 60.2533 263.625 60.6657 263.625 61.1533V66H262.354V61.1396C262.354 60.7523 262.297 60.4424 262.183 60.21C262.069 59.973 261.902 59.8021 261.684 59.6973C261.465 59.5879 261.196 59.5332 260.877 59.5332C260.562 59.5332 260.275 59.5993 260.016 59.7314C259.76 59.8636 259.539 60.0459 259.353 60.2783C259.17 60.5107 259.027 60.7773 258.922 61.0781C258.822 61.3743 258.771 61.6888 258.771 62.0215ZM270.588 58.6035H271.736V65.8428C271.736 66.4945 271.604 67.0505 271.34 67.5107C271.076 67.971 270.706 68.3197 270.232 68.5566C269.763 68.7982 269.221 68.9189 268.605 68.9189C268.35 68.9189 268.049 68.8779 267.703 68.7959C267.361 68.7184 267.024 68.584 266.691 68.3926C266.363 68.2057 266.088 67.9528 265.864 67.6338L266.527 66.8818C266.837 67.2555 267.161 67.5153 267.498 67.6611C267.84 67.807 268.177 67.8799 268.51 67.8799C268.911 67.8799 269.257 67.8047 269.549 67.6543C269.84 67.5039 270.066 67.2806 270.226 66.9844C270.39 66.6927 270.472 66.3327 270.472 65.9043V60.2305L270.588 58.6035ZM265.495 62.3838V62.2402C265.495 61.6751 265.561 61.1624 265.693 60.7021C265.83 60.2373 266.024 59.8385 266.274 59.5059C266.53 59.1732 266.837 58.918 267.197 58.7402C267.557 58.5579 267.963 58.4668 268.414 58.4668C268.879 58.4668 269.285 58.5488 269.631 58.7129C269.982 58.8724 270.278 59.1071 270.52 59.417C270.766 59.7223 270.959 60.0915 271.101 60.5244C271.242 60.9574 271.34 61.4473 271.395 61.9941V62.623C271.344 63.1654 271.246 63.653 271.101 64.0859C270.959 64.5189 270.766 64.888 270.52 65.1934C270.278 65.4987 269.982 65.7334 269.631 65.8975C269.28 66.057 268.87 66.1367 268.4 66.1367C267.958 66.1367 267.557 66.0433 267.197 65.8564C266.842 65.6696 266.536 65.4076 266.281 65.0703C266.026 64.7331 265.83 64.3366 265.693 63.8809C265.561 63.4206 265.495 62.9215 265.495 62.3838ZM266.76 62.2402V62.3838C266.76 62.7529 266.796 63.0993 266.869 63.4229C266.947 63.7464 267.063 64.0312 267.218 64.2773C267.377 64.5234 267.58 64.7171 267.826 64.8584C268.072 64.9951 268.366 65.0635 268.708 65.0635C269.127 65.0635 269.474 64.9746 269.747 64.7969C270.021 64.6191 270.237 64.3844 270.396 64.0928C270.561 63.8011 270.688 63.4844 270.779 63.1426V61.4951C270.729 61.2445 270.652 61.0029 270.547 60.7705C270.447 60.5335 270.314 60.3239 270.15 60.1416C269.991 59.9548 269.793 59.8066 269.556 59.6973C269.319 59.5879 269.041 59.5332 268.722 59.5332C268.375 59.5332 268.077 59.6061 267.826 59.752C267.58 59.8932 267.377 60.0892 267.218 60.3398C267.063 60.5859 266.947 60.873 266.869 61.2012C266.796 61.5247 266.76 61.8711 266.76 62.2402ZM273.928 65.3301C273.928 65.1159 273.994 64.9359 274.126 64.79C274.263 64.6396 274.459 64.5645 274.714 64.5645C274.969 64.5645 275.163 64.6396 275.295 64.79C275.432 64.9359 275.5 65.1159 275.5 65.3301C275.5 65.5397 275.432 65.7174 275.295 65.8633C275.163 66.0091 274.969 66.082 274.714 66.082C274.459 66.082 274.263 66.0091 274.126 65.8633C273.994 65.7174 273.928 65.5397 273.928 65.3301ZM279.223 58.6035V66H277.951V58.6035H279.223ZM277.855 56.6416C277.855 56.4365 277.917 56.2633 278.04 56.1221C278.168 55.9808 278.354 55.9102 278.601 55.9102C278.842 55.9102 279.027 55.9808 279.154 56.1221C279.286 56.2633 279.353 56.4365 279.353 56.6416C279.353 56.8376 279.286 57.0062 279.154 57.1475C279.027 57.2842 278.842 57.3525 278.601 57.3525C278.354 57.3525 278.168 57.2842 278.04 57.1475C277.917 57.0062 277.855 56.8376 277.855 56.6416ZM281.168 62.3838V62.2266C281.168 61.6934 281.245 61.1989 281.4 60.7432C281.555 60.2829 281.779 59.8841 282.07 59.5469C282.362 59.2051 282.715 58.9408 283.13 58.7539C283.545 58.5625 284.009 58.4668 284.524 58.4668C285.044 58.4668 285.511 58.5625 285.926 58.7539C286.345 58.9408 286.701 59.2051 286.992 59.5469C287.288 59.8841 287.514 60.2829 287.669 60.7432C287.824 61.1989 287.901 61.6934 287.901 62.2266V62.3838C287.901 62.917 287.824 63.4115 287.669 63.8672C287.514 64.3229 287.288 64.7217 286.992 65.0635C286.701 65.4007 286.347 65.665 285.933 65.8564C285.522 66.0433 285.058 66.1367 284.538 66.1367C284.019 66.1367 283.551 66.0433 283.137 65.8564C282.722 65.665 282.367 65.4007 282.07 65.0635C281.779 64.7217 281.555 64.3229 281.4 63.8672C281.245 63.4115 281.168 62.917 281.168 62.3838ZM282.433 62.2266V62.3838C282.433 62.7529 282.476 63.1016 282.562 63.4297C282.649 63.7533 282.779 64.0404 282.952 64.291C283.13 64.5417 283.351 64.7399 283.615 64.8857C283.88 65.027 284.187 65.0977 284.538 65.0977C284.884 65.0977 285.188 65.027 285.447 64.8857C285.712 64.7399 285.93 64.5417 286.104 64.291C286.277 64.0404 286.407 63.7533 286.493 63.4297C286.584 63.1016 286.63 62.7529 286.63 62.3838V62.2266C286.63 61.862 286.584 61.5179 286.493 61.1943C286.407 60.8662 286.274 60.5768 286.097 60.3262C285.924 60.071 285.705 59.8704 285.44 59.7246C285.181 59.5788 284.875 59.5059 284.524 59.5059C284.178 59.5059 283.873 59.5788 283.608 59.7246C283.349 59.8704 283.13 60.071 282.952 60.3262C282.779 60.5768 282.649 60.8662 282.562 61.1943C282.476 61.5179 282.433 61.862 282.433 62.2266Z" fill="white"/>
<path fill-rule="evenodd" clip-rule="evenodd" d="M154 59H153.5V58C153.5 56.62 152.38 55.5 151 55.5C149.62 55.5 148.5 56.62 148.5 58V59H148C147.45 59 147 59.45 147 60V65C147 65.55 147.45 66 148 66H154C154.55 66 155 65.55 155 65V60C155 59.45 154.55 59 154 59ZM149.5 59V58C149.5 57.17 150.17 56.5 151 56.5C151.83 56.5 152.5 57.17 152.5 58V59H149.5Z" fill="#EAEAEA"/>
</g>
<g clip-path="url(#clip4_10_880)">
<path fill-rule="evenodd" clip-rule="evenodd" d="M113 55.0077C112.817 54.9826 112.625 55.0354 112.478 55.1688L107.211 59.9354C106.947 60.174 106.926 60.5808 107.163 60.8457C107.402 61.1125 107.813 61.134 108.078 60.8936L108.474 60.5356V66.0004C108.474 66.5525 108.922 67.0004 109.474 67.0004H116.495C117.047 67.0003 117.495 66.5524 117.495 66.0004V60.5078L117.922 60.8936C118.187 61.134 118.598 61.1125 118.837 60.8457C119.074 60.5808 119.053 60.174 118.789 59.9354L113.522 55.1688C113.375 55.0354 113.183 54.9826 113 55.0077ZM109.763 59.369V65.7045H116.206V59.3411L113 56.4394L109.763 59.369Z" fill="white"/>
<path fill-rule="evenodd" clip-rule="evenodd" d="M87.9979 59.3312V55.8045C87.9979 55.5045 87.6379 55.3579 87.4312 55.5712L86.2446 56.7579C85.0379 55.5512 83.3179 54.8579 81.4379 55.0245C78.6446 55.2779 76.3446 57.5245 76.0379 60.3179C75.6379 63.9312 78.4579 66.9979 81.9979 66.9979C85.0579 66.9979 87.5846 64.7046 87.9512 61.7446C87.9979 61.3446 87.6846 60.9979 87.2846 60.9979C86.9512 60.9979 86.6712 61.2446 86.6312 61.5712C86.3446 63.8979 84.3379 65.6979 81.9312 65.6646C79.4579 65.6312 77.3712 63.5446 77.3312 61.0646C77.2912 58.4645 79.4046 56.3312 81.9979 56.3312C83.2846 56.3312 84.4512 56.8579 85.2979 57.6979L83.9046 59.0912C83.6912 59.3045 83.8379 59.6645 84.1379 59.6645H87.6646C87.8512 59.6645 87.9979 59.5179 87.9979 59.3312Z" fill="white"/>
<path fill-rule="evenodd" clip-rule="evenodd" d="M45.7701 61.617H54.3721L50.614 65.3751C50.3137 65.6754 50.3137 66.1683 50.614 66.4686C50.9143 66.769 51.3995 66.769 51.6998 66.4686L56.7747 61.3937C57.0751 61.0934 57.0751 60.6082 56.7747 60.3079L51.7075 55.2253C51.4072 54.9249 50.922 54.9249 50.6217 55.2253C50.3214 55.5256 50.3214 56.0107 50.6217 56.3111L54.3721 60.0768H45.7701C45.3465 60.0768 45 60.4234 45 60.8469C45 61.2705 45.3465 61.617 45.7701 61.617Z" fill="#86888A"/>
<path fill-rule="evenodd" clip-rule="evenodd" d="M25.2299 60.0768H16.6279L20.386 56.3188C20.6863 56.0185 20.6863 55.5256 20.386 55.2253C20.0857 54.9249 19.6005 54.9249 19.3002 55.2253L14.2253 60.3002C13.9249 60.6005 13.9249 61.0857 14.2253 61.386L19.3002 66.4609C19.6005 66.7613 20.0857 66.7613 20.386 66.4609C20.6863 66.1606 20.6863 65.6754 20.386 65.3751L16.6279 61.617H25.2299C25.6535 61.617 26 61.2705 26 60.8469C26 60.4234 25.6535 60.0768 25.2299 60.0768Z" fill="white"/>
</g>
</g>
<g clip-path="url(#clip5_10_880)">
<g filter="url(#filter1_d_10_880)">
<path d="M0 8C0 3.58172 3.58172 0 8 0H1432C1436.42 0 1440 3.58172 1440 8V42H0V8Z" fill="#202124"/>
</g>
<path fill-rule="evenodd" clip-rule="evenodd" d="M74 42C75.3846 41.0588 78.6154 40.5882 80 34C80 34 80 42 80 42C80 42 74 42 74 42Z" fill="#35363A"/>
<path d="M80 16C80 11.5817 83.5817 8 88 8H232C236.418 8 240 11.5817 240 16V42H80V16Z" fill="#35363A"/>
<path fill-rule="evenodd" clip-rule="evenodd" d="M90.2835 24.8147H96.0002V19.0979H103.84V26.9379H88.1602V19.0979H90.2835V24.8147ZM97.9603 24.9779H101.167L101.88 25.6906L101.88 21.0579H97.9603V24.9779Z" fill="#F1D4CA"/>
<path fill-rule="evenodd" clip-rule="evenodd" d="M90.2835 24.548H96.0002V18.8312H103.84V26.6712H88.1602V18.8312H90.2835V24.548ZM97.9603 24.7112H101.167L101.88 25.424L101.88 20.7912H97.9603V24.7112Z" fill="#D5B2CB"/>
<path fill-rule="evenodd" clip-rule="evenodd" d="M90.2835 24.2814H96.0002V18.5646H103.84V26.4046H88.1602V18.5646H90.2835V24.2814ZM97.9603 24.4446H101.167L101.88 25.1573L101.88 20.5246H97.9603V24.4446Z" fill="#B1A5AE"/>
<path fill-rule="evenodd" clip-rule="evenodd" d="M90.2835 24.0147H96.0002V18.2979H103.84V26.1379H88.1602V18.2979H90.2835V24.0147ZM97.9603 24.1779H101.167L101.88 24.8906L101.88 20.2579H97.9603V24.1779Z" fill="#8E98BE"/>
<path fill-rule="evenodd" clip-rule="evenodd" d="M90.2833 23.748H95.9999V18.0312H103.84V25.8713H88.1599V18.0312H90.2833V23.748ZM97.9601 23.9113H101.167L101.88 24.624L101.88 19.9913H97.9601V23.9113Z" fill="white"/>
<path d="M102.422 29.9057L101.719 28.5004H102.242L102.676 29.4196L103.109 28.5004H103.632L102.929 29.9057V30.8248H102.422V29.9057Z" fill="#F1D4CA"/>
<path d="M100.247 28.5032V30.3499H101.265V30.8108H99.7406V28.5004L100.247 28.5032Z" fill="#F1D4CA"/>
<path d="M97.0292 28.5004H97.5495V29.481L98.2076 28.5032H98.7982L97.9967 29.6682C98.0548 29.685 98.1064 29.7045 98.1514 29.7269C98.1982 29.7492 98.2423 29.7744 98.2835 29.8023C98.3473 29.847 98.4064 29.8982 98.4607 29.956C98.5151 30.0137 98.5629 30.0835 98.6042 30.1655C98.6454 30.2456 98.6792 30.3387 98.7054 30.4449C98.7317 30.5492 98.7486 30.6711 98.7561 30.8108H98.2526C98.2414 30.673 98.2151 30.5566 98.1739 30.4616C98.1326 30.3648 98.081 30.2875 98.0192 30.2297C97.9573 30.1701 97.887 30.1273 97.8082 30.1012C97.7295 30.0752 97.647 30.0621 97.5607 30.0621H97.5495V30.8108H97.0292V28.5004Z" fill="#F1D4CA"/>
<path d="M94.8542 28.9502V29.4335H95.9567V29.8805H94.8542V30.3638H95.9707V30.8108H94.362V28.5004H95.9707V28.9502H94.8542Z" fill="#F1D4CA"/>
<path d="M92.1865 28.9502V29.4335H93.289V29.8805H92.1865V30.3638H93.303V30.8108H91.6943V28.5004H93.303V28.9502H92.1865Z" fill="#F1D4CA"/>
<path d="M88.9562 30.2102L89.288 28.5284H89.7971L90.129 30.2102L90.2133 28.5004H90.7168L90.4721 30.808H89.8702L89.544 29.4447L89.2149 30.808H88.613L88.3683 28.5004H88.8718L88.9562 30.2102Z" fill="#F1D4CA"/>
<path d="M102.422 30.1926L101.719 28.778H102.242L102.676 29.7033L103.109 28.778H103.632L102.929 30.1926V31.118H102.422V30.1926Z" fill="#B1A5AE"/>
<path d="M100.247 28.7808V30.6398H101.265V31.1039H99.7407V28.778L100.247 28.7808Z" fill="#B1A5AE"/>
<path d="M97.0292 28.778H97.5495V29.7651L98.2077 28.7808H98.7983L97.9967 29.9536C98.0549 29.9705 98.1064 29.9901 98.1514 30.0126C98.1983 30.0351 98.2424 30.0605 98.2836 30.0886C98.3474 30.1336 98.4064 30.1851 98.4608 30.2433C98.5152 30.3014 98.563 30.3717 98.6042 30.4542C98.6455 30.5348 98.6792 30.6286 98.7055 30.7355C98.7317 30.8405 98.7486 30.9633 98.7561 31.1039H98.2527C98.2414 30.9651 98.2152 30.848 98.1739 30.7523C98.1327 30.6548 98.0811 30.577 98.0192 30.5189C97.9574 30.4589 97.887 30.4158 97.8083 30.3895C97.7295 30.3633 97.647 30.3501 97.5608 30.3501H97.5495V31.1039H97.0292V28.778Z" fill="#B1A5AE"/>
<path d="M94.8542 29.2308V29.7173H95.9567V30.1673H94.8542V30.6539H95.9708V31.1039H94.3621V28.778H95.9708V29.2308H94.8542Z" fill="#B1A5AE"/>
<path d="M92.1865 29.2308V29.7173H93.289V30.1673H92.1865V30.6539H93.3031V31.1039H91.6943V28.778H93.3031V29.2308H92.1865Z" fill="#B1A5AE"/>
<path d="M88.9562 30.4992L89.2881 28.8061H89.7972L90.129 30.4992L90.2134 28.778H90.7168L90.4722 31.1011H89.8703L89.544 29.7286L89.215 31.1011H88.6131L88.3684 28.778H88.8718L88.9562 30.4992Z" fill="#B1A5AE"/>
<path d="M102.422 30.4763L101.719 29.071H102.242L102.676 29.9902L103.109 29.071H103.632L102.929 30.4763V31.3954H102.422V30.4763Z" fill="#D5B2CB"/>
<path d="M100.247 29.0738V30.9205H101.265V31.3815H99.7407V29.071L100.247 29.0738Z" fill="#D5B2CB"/>
<path d="M97.0292 29.071H97.5495V30.0516L98.2077 29.0738H98.7983L97.9967 30.2388C98.0549 30.2556 98.1064 30.2751 98.1514 30.2975C98.1983 30.3198 98.2424 30.345 98.2836 30.3729C98.3474 30.4176 98.4064 30.4688 98.4608 30.5266C98.5152 30.5843 98.563 30.6542 98.6042 30.7361C98.6455 30.8162 98.6792 30.9093 98.7055 31.0155C98.7317 31.1198 98.7486 31.2418 98.7561 31.3815H98.2527C98.2414 31.2436 98.2152 31.1272 98.1739 31.0322C98.1327 30.9354 98.0811 30.8581 98.0192 30.8004C97.9574 30.7408 97.887 30.6979 97.8083 30.6718C97.7295 30.6458 97.647 30.6327 97.5608 30.6327H97.5495V31.3815H97.0292V29.071Z" fill="#D5B2CB"/>
<path d="M94.8542 29.5208V30.0041H95.9567V30.4511H94.8542V30.9345H95.9708V31.3815H94.3621V29.071H95.9708V29.5208H94.8542Z" fill="#D5B2CB"/>
<path d="M92.1865 29.5208V30.0041H93.289V30.4511H92.1865V30.9345H93.3031V31.3815H91.6943V29.071H93.3031V29.5208H92.1865Z" fill="#D5B2CB"/>
<path d="M88.9562 30.7808L89.2881 29.099H89.7972L90.129 30.7808L90.2134 29.071H90.7168L90.4722 31.3787H89.8703L89.544 30.0153L89.215 31.3787H88.6131L88.3684 29.071H88.8718L88.9562 30.7808Z" fill="#D5B2CB"/>
<path d="M102.422 30.7633L101.719 29.3486H102.242L102.676 30.2739L103.109 29.3486H103.632L102.929 30.7633V31.6886H102.422V30.7633Z" fill="#8E98BE"/>
<path d="M100.247 29.3514V31.2104H101.265V31.6745H99.7407V29.3486L100.247 29.3514Z" fill="#8E98BE"/>
<path d="M97.0292 29.3486H97.5495V30.3358L98.2077 29.3514H98.7983L97.9967 30.5242C98.0549 30.5411 98.1064 30.5608 98.1514 30.5833C98.1983 30.6058 98.2424 30.6311 98.2836 30.6592C98.3474 30.7042 98.4064 30.7558 98.4608 30.8139C98.5152 30.872 98.563 30.9423 98.6042 31.0248C98.6455 31.1054 98.6792 31.1992 98.7055 31.3061C98.7317 31.4111 98.7486 31.5339 98.7561 31.6745H98.2527C98.2414 31.5358 98.2152 31.4186 98.1739 31.3229C98.1327 31.2254 98.0811 31.1476 98.0192 31.0895C97.9574 31.0295 97.887 30.9864 97.8083 30.9601C97.7295 30.9339 97.647 30.9208 97.5608 30.9208H97.5495V31.6745H97.0292V29.3486Z" fill="#8E98BE"/>
<path d="M94.8542 29.8014V30.2879H95.9567V30.7379H94.8542V31.2245H95.9708V31.6745H94.3621V29.3486H95.9708V29.8014H94.8542Z" fill="#8E98BE"/>
<path d="M92.1865 29.8014V30.2879H93.289V30.7379H92.1865V31.2245H93.3031V31.6745H91.6943V29.3486H93.3031V29.8014H92.1865Z" fill="#8E98BE"/>
<path d="M88.9562 31.0698L89.2881 29.3767H89.7972L90.129 31.0698L90.2134 29.3486H90.7168L90.4722 31.6717H89.8703L89.544 30.2992L89.215 31.6717H88.6131L88.3684 29.3486H88.8718L88.9562 31.0698Z" fill="#8E98BE"/>
<path d="M102.422 31.0564L101.719 29.6417H102.242L102.676 30.567L103.109 29.6417H103.632L102.929 31.0564V31.9817H102.422V31.0564Z" fill="white"/>
<path d="M100.247 29.6445V31.5035H101.265V31.9676H99.7407V29.6417L100.247 29.6445Z" fill="white"/>
<path d="M97.0292 29.6417H97.5495V30.6289L98.2077 29.6445H98.7983L97.9967 30.8173C98.0549 30.8342 98.1064 30.8539 98.1514 30.8764C98.1983 30.8989 98.2424 30.9242 98.2836 30.9523C98.3474 30.9973 98.4064 31.0489 98.4608 31.107C98.5152 31.1651 98.563 31.2354 98.6042 31.3179C98.6455 31.3985 98.6792 31.4923 98.7055 31.5992C98.7317 31.7042 98.7486 31.827 98.7561 31.9676H98.2527C98.2414 31.8289 98.2152 31.7117 98.1739 31.616C98.1327 31.5185 98.0811 31.4407 98.0192 31.3826C97.9574 31.3226 97.887 31.2795 97.8083 31.2532C97.7295 31.227 97.647 31.2139 97.5608 31.2139H97.5495V31.9676H97.0292V29.6417Z" fill="white"/>
<path d="M94.8542 30.0945V30.581H95.9567V31.031H94.8542V31.5176H95.9708V31.9676H94.3621V29.6417H95.9708V30.0945H94.8542Z" fill="white"/>
<path d="M92.1865 30.0945V30.581H93.289V31.031H92.1865V31.5176H93.3031V31.9676H91.6943V29.6417H93.3031V30.0945H92.1865Z" fill="white"/>
<path d="M88.9562 31.3629L89.2881 29.6698H89.7972L90.129 31.3629L90.2134 29.6417H90.7168L90.4722 31.9648H89.8703L89.544 30.5923L89.215 31.9648H88.6131L88.3684 29.6417H88.8718L88.9562 31.3629Z" fill="white"/>
<path d="M114.848 22.736H122.252V23.552H114.848V22.736ZM114.848 19.628H115.844V23.132H114.848V19.628ZM113.6 25.112H123.404V25.928H113.6V25.112ZM116.132 25.424H117.128V29.936H116.132V25.424ZM119.876 25.424H120.872V29.936H119.876V25.424ZM125.403 19.88H130.467V24.608H125.403V19.88ZM129.495 20.684H126.375V23.804H129.495V20.684ZM132.735 19.088H133.731V25.568H132.735V19.088ZM130.155 25.76C130.907 25.76 131.551 25.844 132.087 26.012C132.631 26.172 133.051 26.408 133.347 26.72C133.643 27.024 133.791 27.396 133.791 27.836C133.791 28.268 133.643 28.64 133.347 28.952C133.051 29.264 132.631 29.5 132.087 29.66C131.551 29.828 130.907 29.912 130.155 29.912C129.403 29.912 128.755 29.828 128.211 29.66C127.667 29.5 127.247 29.264 126.951 28.952C126.655 28.64 126.507 28.268 126.507 27.836C126.507 27.396 126.655 27.024 126.951 26.72C127.247 26.408 127.667 26.172 128.211 26.012C128.755 25.844 129.403 25.76 130.155 25.76ZM130.155 26.552C129.603 26.552 129.127 26.604 128.727 26.708C128.335 26.804 128.031 26.948 127.815 27.14C127.607 27.332 127.503 27.564 127.503 27.836C127.503 28.1 127.607 28.328 127.815 28.52C128.031 28.712 128.335 28.86 128.727 28.964C129.127 29.068 129.603 29.12 130.155 29.12C130.699 29.12 131.167 29.068 131.559 28.964C131.959 28.86 132.263 28.712 132.471 28.52C132.687 28.328 132.795 28.1 132.795 27.836C132.795 27.564 132.687 27.332 132.471 27.14C132.263 26.948 131.959 26.804 131.559 26.708C131.167 26.604 130.699 26.552 130.155 26.552ZM142.795 19.592C143.339 19.592 143.819 19.688 144.235 19.88C144.651 20.064 144.975 20.324 145.207 20.66C145.447 20.988 145.567 21.376 145.567 21.824C145.567 22.256 145.447 22.644 145.207 22.988C144.975 23.324 144.651 23.588 144.235 23.78C143.819 23.964 143.339 24.056 142.795 24.056C142.267 24.056 141.795 23.964 141.379 23.78C140.963 23.588 140.635 23.324 140.395 22.988C140.155 22.644 140.035 22.256 140.035 21.824C140.035 21.376 140.155 20.988 140.395 20.66C140.635 20.324 140.963 20.064 141.379 19.88C141.795 19.688 142.267 19.592 142.795 19.592ZM142.795 20.408C142.451 20.408 142.143 20.468 141.871 20.588C141.599 20.708 141.383 20.876 141.223 21.092C141.071 21.3 140.995 21.544 140.995 21.824C140.995 22.096 141.071 22.34 141.223 22.556C141.383 22.764 141.599 22.928 141.871 23.048C142.143 23.168 142.451 23.228 142.795 23.228C143.155 23.228 143.471 23.168 143.743 23.048C144.015 22.928 144.227 22.764 144.379 22.556C144.539 22.34 144.619 22.096 144.619 21.824C144.619 21.544 144.539 21.3 144.379 21.092C144.227 20.876 144.015 20.708 143.743 20.588C143.471 20.468 143.155 20.408 142.795 20.408ZM142.363 25.268H143.359V29.6H142.363V25.268ZM147.163 19.088H148.147V29.936H147.163V19.088ZM139.363 25.808L139.231 24.968C139.903 24.968 140.639 24.96 141.439 24.944C142.247 24.928 143.075 24.892 143.923 24.836C144.779 24.78 145.599 24.692 146.383 24.572L146.455 25.316C145.647 25.468 144.823 25.58 143.983 25.652C143.143 25.716 142.327 25.756 141.535 25.772C140.751 25.788 140.027 25.8 139.363 25.808ZM151.742 19.592H158.726V20.396H151.742V19.592ZM158.078 19.592H159.062V20.42C159.062 20.876 159.046 21.38 159.014 21.932C158.99 22.476 158.898 23.108 158.738 23.828L157.766 23.72C157.926 23.016 158.018 22.404 158.042 21.884C158.066 21.356 158.078 20.868 158.078 20.42V19.592ZM158.366 21.416V22.124L151.61 22.424L151.478 21.632L158.366 21.416ZM150.506 23.516H160.286V24.32H150.506V23.516ZM151.646 25.34H159.134V27.872H152.654V29.336H151.67V27.128H158.15V26.12H151.646V25.34ZM151.67 29H159.518V29.792H151.67V29ZM169.641 19.076H170.625V29.948H169.641V19.076ZM162.357 26.492H163.257C163.873 26.492 164.465 26.484 165.033 26.468C165.609 26.444 166.189 26.404 166.773 26.348C167.365 26.292 167.981 26.212 168.621 26.108L168.717 26.924C167.741 27.084 166.821 27.192 165.957 27.248C165.093 27.296 164.193 27.32 163.257 27.32H162.357V26.492ZM162.333 20.084H167.349V23.96H163.365V26.804H162.357V23.156H166.341V20.9H162.333V20.084Z" fill="white"/>
<path d="M201.805 28.4258C201.805 28.2422 201.861 28.0879 201.975 27.9629C202.092 27.834 202.26 27.7695 202.479 27.7695C202.697 27.7695 202.863 27.834 202.977 27.9629C203.094 28.0879 203.152 28.2422 203.152 28.4258C203.152 28.6055 203.094 28.7578 202.977 28.8828C202.863 29.0078 202.697 29.0703 202.479 29.0703C202.26 29.0703 202.092 29.0078 201.975 28.8828C201.861 28.7578 201.805 28.6055 201.805 28.4258Z" fill="#35363A"/>
<path fill-rule="evenodd" clip-rule="evenodd" d="M226.584 21.4221C226.362 21.2002 226.003 21.2002 225.782 21.4221L223 24.198L220.218 21.4164C219.997 21.1945 219.638 21.1945 219.416 21.4164C219.195 21.6382 219.195 21.9966 219.416 22.2184L222.198 25L219.416 27.7816C219.195 28.0034 219.195 28.3618 219.416 28.5836C219.638 28.8055 219.997 28.8055 220.218 28.5836L223 25.802L225.782 28.5836C226.003 28.8055 226.362 28.8055 226.584 28.5836C226.805 28.3618 226.805 28.0034 226.584 27.7816L223.802 25L226.584 22.2184C226.8 22.0023 226.8 21.6382 226.584 21.4221Z" fill="white"/>
<path fill-rule="evenodd" clip-rule="evenodd" d="M246 42C244.615 41.0588 241.385 40.5882 240 34C240 34 240 42 240 42C240 42 246 42 246 42Z" fill="#35363A"/>
<path fill-rule="evenodd" clip-rule="evenodd" d="M269.714 25.9524H264.952V30.7143C264.952 31.2381 264.524 31.6666 264 31.6666C263.476 31.6666 263.048 31.2381 263.048 30.7143V25.9524H258.286C257.762 25.9524 257.333 25.5238 257.333 25C257.333 24.4762 257.762 24.0476 258.286 24.0476H263.048V19.2857C263.048 18.7619 263.476 18.3333 264 18.3333C264.524 18.3333 264.952 18.7619 264.952 19.2857V24.0476H269.714C270.238 24.0476 270.667 24.4762 270.667 25C270.667 25.5238 270.238 25.9524 269.714 25.9524Z" fill="#BDC1C6"/>
<g clip-path="url(#clip6_10_880)">
<circle cx="59" cy="21.5" r="5.75" fill="#27CA40" stroke="#3EAF3F" stroke-width="0.5"/>
<circle cx="39" cy="21.5" r="5.75" fill="#FFC130" stroke="#E1A325" stroke-width="0.5"/>
<circle cx="19" cy="21.5" r="5.75" fill="#FF6058" stroke="#E14942" stroke-width="0.5"/>
</g>
</g>
</g>
<rect x="0.5" y="0.5" width="1439" height="1159" rx="7.5" stroke="black"/>
<defs>
<filter id="filter0_i_10_880" x="0" y="42" width="1440" height="38" filterUnits="userSpaceOnUse" color-interpolation-filters="sRGB">
<feFlood flood-opacity="0" result="BackgroundImageFix"/>
<feBlend mode="normal" in="SourceGraphic" in2="BackgroundImageFix" result="shape"/>
<feColorMatrix in="SourceAlpha" type="matrix" values="0 0 0 0 0 0 0 0 0 0 0 0 0 0 0 0 0 0 127 0" result="hardAlpha"/>
<feOffset dy="-1"/>
<feComposite in2="hardAlpha" operator="arithmetic" k2="-1" k3="1"/>
<feColorMatrix type="matrix" values="0 0 0 0 0.854902 0 0 0 0 0.862745 0 0 0 0 0.878431 0 0 0 1 0"/>
<feBlend mode="normal" in2="shape" result="effect1_innerShadow_10_880"/>
</filter>
<filter id="filter1_d_10_880" x="-4" y="0" width="1448" height="50" filterUnits="userSpaceOnUse" color-interpolation-filters="sRGB">
<feFlood flood-opacity="0" result="BackgroundImageFix"/>
<feColorMatrix in="SourceAlpha" type="matrix" values="0 0 0 0 0 0 0 0 0 0 0 0 0 0 0 0 0 0 127 0" result="hardAlpha"/>
<feOffset dy="4"/>
<feGaussianBlur stdDeviation="2"/>
<feColorMatrix type="matrix" values="0 0 0 0 0 0 0 0 0 0 0 0 0 0 0 0 0 0 0.25 0"/>
<feBlend mode="normal" in2="BackgroundImageFix" result="effect1_dropShadow_10_880"/>
<feBlend mode="normal" in="SourceGraphic" in2="effect1_dropShadow_10_880" result="shape"/>
</filter>
<clipPath id="clip0_10_880">
<rect width="1440" height="80" fill="white"/>
</clipPath>
<clipPath id="clip1_10_880">
<rect width="1440" height="38" fill="white" transform="translate(0 42)"/>
</clipPath>
<clipPath id="clip2_10_880">
<rect width="51" height="22" fill="white" transform="translate(1375 50)"/>
</clipPath>
<clipPath id="clip3_10_880">
<rect width="1225" height="28" fill="white" transform="translate(134 47)"/>
</clipPath>
<clipPath id="clip4_10_880">
<rect width="109" height="16" fill="white" transform="translate(12 53)"/>
</clipPath>
<clipPath id="clip5_10_880">
<rect width="1440" height="42" fill="white"/>
</clipPath>
<clipPath id="clip6_10_880">
<rect width="52" height="12" fill="white" transform="translate(13 15.5)"/>
</clipPath>
</defs>
</svg>
