<svg width="1024" height="1024" viewBox="0 0 1024 1024" fill="none" xmlns="http://www.w3.org/2000/svg">
<path fill-rule="evenodd" clip-rule="evenodd" d="M146.137 661.541H512V295.667H1013.76V797.427H10.2402V295.667H146.137V661.541ZM637.451 671.987H842.706L888.32 717.601L888.331 421.107H637.451V671.987Z" fill="#F1D4CA"/>
<path fill-rule="evenodd" clip-rule="evenodd" d="M146.137 644.474H512V278.6H1013.76V780.36H10.2402V278.6H146.137V644.474ZM637.451 654.92H842.706L888.32 700.535L888.331 404.04H637.451V654.92Z" fill="#D5B2CB"/>
<path fill-rule="evenodd" clip-rule="evenodd" d="M146.137 627.407H512V261.533H1013.76V763.293H10.2402V261.533H146.137V627.407ZM637.451 637.853H842.706L888.32 683.468L888.331 386.973H637.451V637.853Z" fill="#B1A5AE"/>
<path fill-rule="evenodd" clip-rule="evenodd" d="M146.137 610.341H512V244.467H1013.76V746.227H10.2402V244.467H146.137V610.341ZM637.451 620.787H842.706L888.32 666.401L888.331 369.907H637.451V620.787Z" fill="#8E98BE"/>
<path fill-rule="evenodd" clip-rule="evenodd" d="M146.137 593.274H512V227.4H1013.76V729.16H10.2402V227.4H146.137V593.274ZM637.451 603.72H842.706L888.32 649.334L888.331 352.84H637.451V603.72Z" fill="#121725"/>
</svg>
