<svg width="1024" height="1024" viewBox="0 0 1024 1024" fill="none" xmlns="http://www.w3.org/2000/svg">
<path fill-rule="evenodd" clip-rule="evenodd" d="M146.137 500.141H512V134.267H1013.76V636.027H10.2402V134.267H146.137V500.141ZM637.451 510.587H842.706L888.32 556.201L888.331 259.707H637.451V510.587Z" fill="#F1D4CA"/>
<path fill-rule="evenodd" clip-rule="evenodd" d="M146.137 483.074H512V117.2H1013.76V618.96H10.2402V117.2H146.137V483.074ZM637.451 493.52H842.706L888.32 539.135L888.331 242.64H637.451V493.52Z" fill="#D5B2CB"/>
<path fill-rule="evenodd" clip-rule="evenodd" d="M146.137 466.007H512V100.133H1013.76V601.893H10.2402V100.133H146.137V466.007ZM637.451 476.453H842.706L888.32 522.068L888.331 225.573H637.451V476.453Z" fill="#B1A5AE"/>
<path fill-rule="evenodd" clip-rule="evenodd" d="M146.137 448.941H512V83.0669H1013.76V584.827H10.2402V83.0669H146.137V448.941ZM637.451 459.387H842.706L888.32 505.001L888.331 208.507H637.451V459.387Z" fill="#8E98BE"/>
<path fill-rule="evenodd" clip-rule="evenodd" d="M146.137 431.874H512V66H1013.76V567.76H10.2402V66H146.137V431.874ZM637.451 442.32H842.706L888.32 487.935L888.331 191.44H637.451V442.32Z" fill="#121725"/>
<path d="M923.032 825.962L878.032 736.027H911.512L939.232 794.851L966.952 736.027H1000.43L955.432 825.962V884.787H923.032V825.962Z" fill="#F1D4CA"/>
<path d="M783.806 736.206V854.391H848.966V883.893H751.406V736.027L783.806 736.206Z" fill="#F1D4CA"/>
<path d="M577.875 736.027H611.175V798.785L653.295 736.206H691.095L639.795 810.764C643.515 811.837 646.815 813.089 649.695 814.519C652.695 815.95 655.515 817.559 658.155 819.347C662.235 822.208 666.015 825.485 669.495 829.181C672.975 832.876 676.035 837.346 678.675 842.591C681.315 847.716 683.475 853.676 685.155 860.47C686.835 867.145 687.915 874.953 688.395 883.893H656.175C655.455 875.072 653.775 867.622 651.135 861.543C648.495 855.345 645.195 850.398 641.235 846.703C637.275 842.889 632.775 840.147 627.735 838.478C622.695 836.809 617.415 835.975 611.895 835.975H611.175V883.893H577.875V736.027Z" fill="#F1D4CA"/>
<path d="M438.656 764.813V795.745H509.216V824.353H438.656V855.285H510.116V883.893H407.156V736.027H510.116V764.813H438.656Z" fill="#F1D4CA"/>
<path d="M267.938 764.813V795.745H338.498V824.353H267.938V855.285H339.398V883.893H236.438V736.027H339.398V764.813H267.938Z" fill="#F1D4CA"/>
<path d="M61.1874 845.451L82.4274 737.815H115.007L136.247 845.451L141.647 736.027H173.867L158.207 883.714H119.687L98.8074 796.461L77.7474 883.714H39.2274L23.5674 736.027H55.7874L61.1874 845.451Z" fill="#F1D4CA"/>
<path d="M923.032 844.327L878.032 753.787H911.512L939.232 813.007L966.952 753.787H1000.43L955.432 844.327V903.547H923.032V844.327Z" fill="#B1A5AE"/>
<path d="M783.806 753.967V872.947H848.966V902.647H751.406V753.787L783.806 753.967Z" fill="#B1A5AE"/>
<path d="M577.875 753.787H611.175V816.967L653.295 753.967H691.095L639.795 829.027C643.515 830.107 646.815 831.367 649.695 832.807C652.695 834.247 655.515 835.867 658.155 837.667C662.235 840.547 666.015 843.847 669.495 847.567C672.975 851.287 676.035 855.787 678.675 861.067C681.315 866.227 683.475 872.227 685.155 879.067C686.835 885.787 687.915 893.647 688.395 902.647H656.175C655.455 893.767 653.775 886.267 651.135 880.147C648.495 873.907 645.195 868.927 641.235 865.207C637.275 861.367 632.775 858.607 627.735 856.927C622.695 855.247 617.415 854.407 611.895 854.407H611.175V902.647H577.875V753.787Z" fill="#B1A5AE"/>
<path d="M438.656 782.767V813.907H509.216V842.707H438.656V873.847H510.116V902.647H407.156V753.787H510.116V782.767H438.656Z" fill="#B1A5AE"/>
<path d="M267.938 782.767V813.907H338.498V842.707H267.938V873.847H339.398V902.647H236.438V753.787H339.398V782.767H267.938Z" fill="#B1A5AE"/>
<path d="M61.1874 863.947L82.4274 755.587H115.007L136.247 863.947L141.647 753.787H173.867L158.207 902.467H119.687L98.8074 814.627L77.7474 902.467H39.2274L23.5674 753.787H55.7874L61.1874 863.947Z" fill="#B1A5AE"/>
<path d="M923.032 862.482L878.032 772.547H911.512L939.232 831.371L966.952 772.547H1000.43L955.432 862.482V921.307H923.032V862.482Z" fill="#D5B2CB"/>
<path d="M783.806 772.726V890.911H848.966V920.413H751.406V772.547L783.806 772.726Z" fill="#D5B2CB"/>
<path d="M577.875 772.547H611.175V835.305L653.295 772.726H691.095L639.795 847.284C643.515 848.357 646.815 849.609 649.695 851.039C652.695 852.47 655.515 854.079 658.155 855.867C662.235 858.728 666.015 862.006 669.495 865.701C672.975 869.396 676.035 873.866 678.675 879.111C681.315 884.236 683.475 890.196 685.155 896.99C686.835 903.665 687.915 911.473 688.395 920.413H656.175C655.455 911.592 653.775 904.142 651.135 898.063C648.495 891.865 645.195 886.918 641.235 883.223C637.275 879.409 632.775 876.667 627.735 874.998C622.695 873.329 617.415 872.495 611.895 872.495H611.175V920.413H577.875V772.547Z" fill="#D5B2CB"/>
<path d="M438.656 801.333V832.265H509.216V860.873H438.656V891.805H510.116V920.413H407.156V772.547H510.116V801.333H438.656Z" fill="#D5B2CB"/>
<path d="M267.938 801.333V832.265H338.498V860.873H267.938V891.805H339.398V920.413H236.438V772.547H339.398V801.333H267.938Z" fill="#D5B2CB"/>
<path d="M61.1874 881.971L82.4274 774.335H115.007L136.247 881.971L141.647 772.547H173.867L158.207 920.234H119.687L98.8074 832.981L77.7474 920.234H39.2274L23.5674 772.547H55.7874L61.1874 881.971Z" fill="#D5B2CB"/>
<path d="M923.032 880.847L878.032 790.307H911.512L939.232 849.527L966.952 790.307H1000.43L955.432 880.847V940.067H923.032V880.847Z" fill="#8E98BE"/>
<path d="M783.806 790.487V909.467H848.966V939.167H751.406V790.307L783.806 790.487Z" fill="#8E98BE"/>
<path d="M577.875 790.307H611.175V853.487L653.295 790.487H691.095L639.795 865.547C643.515 866.627 646.815 867.887 649.695 869.327C652.695 870.767 655.515 872.387 658.155 874.187C662.235 877.067 666.015 880.367 669.495 884.087C672.975 887.807 676.035 892.307 678.675 897.587C681.315 902.747 683.475 908.747 685.155 915.587C686.835 922.307 687.915 930.167 688.395 939.167H656.175C655.455 930.287 653.775 922.787 651.135 916.667C648.495 910.427 645.195 905.447 641.235 901.727C637.275 897.887 632.775 895.127 627.735 893.447C622.695 891.767 617.415 890.927 611.895 890.927H611.175V939.167H577.875V790.307Z" fill="#8E98BE"/>
<path d="M438.656 819.287V850.427H509.216V879.227H438.656V910.367H510.116V939.167H407.156V790.307H510.116V819.287H438.656Z" fill="#8E98BE"/>
<path d="M267.938 819.287V850.427H338.498V879.227H267.938V910.367H339.398V939.167H236.438V790.307H339.398V819.287H267.938Z" fill="#8E98BE"/>
<path d="M61.1874 900.467L82.4274 792.107H115.007L136.247 900.467L141.647 790.307H173.867L158.207 938.987H119.687L98.8074 851.147L77.7474 938.987H39.2274L23.5674 790.307H55.7874L61.1874 900.467Z" fill="#8E98BE"/>
<path d="M923.032 899.607L878.032 809.067H911.512L939.232 868.287L966.952 809.067H1000.43L955.432 899.607V958.827H923.032V899.607Z" fill="#121725"/>
<path d="M783.806 809.247V928.227H848.966V957.927H751.406V809.067L783.806 809.247Z" fill="#121725"/>
<path d="M577.875 809.067H611.175V872.247L653.295 809.247H691.095L639.795 884.307C643.515 885.387 646.815 886.647 649.695 888.087C652.695 889.527 655.515 891.147 658.155 892.947C662.235 895.827 666.015 899.127 669.495 902.847C672.975 906.567 676.035 911.067 678.675 916.347C681.315 921.507 683.475 927.507 685.155 934.347C686.835 941.067 687.915 948.927 688.395 957.927H656.175C655.455 949.047 653.775 941.547 651.135 935.427C648.495 929.187 645.195 924.207 641.235 920.487C637.275 916.647 632.775 913.887 627.735 912.207C622.695 910.527 617.415 909.687 611.895 909.687H611.175V957.927H577.875V809.067Z" fill="#121725"/>
<path d="M438.656 838.047V869.187H509.216V897.987H438.656V929.127H510.116V957.927H407.156V809.067H510.116V838.047H438.656Z" fill="#121725"/>
<path d="M267.938 838.047V869.187H338.498V897.987H267.938V929.127H339.398V957.927H236.438V809.067H339.398V838.047H267.938Z" fill="#121725"/>
<path d="M61.1874 919.227L82.4274 810.867H115.007L136.247 919.227L141.647 809.067H173.867L158.207 957.747H119.687L98.8074 869.907L77.7474 957.747H39.2274L23.5674 809.067H55.7874L61.1874 919.227Z" fill="#121725"/>
</svg>
